<svg xmlns="http://www.w3.org/2000/svg" xmlns:xlink="http://www.w3.org/1999/xlink" viewBox="0 0 49.663 66.663" fill="#fff" fill-rule="evenodd" stroke="#000" stroke-linecap="round" stroke-linejoin="round"><use xlink:href="#A" x=".831" y=".831"/><symbol id="A" overflow="visible"><path d="M18.288 46.884V24.107L10.807 27.1s-1.829 3.824-1.496 9.477c.166 4.489 2.826 9.643 4.821 11.971zM38.405 0c1.663.166 4.489.998 6.484 2.66 2.161 1.995 2.66 5.154 1.995 7.98-.665 2.494-1.496 3.824-4.156 5.653s-4.655 1.995-4.655 1.995v10.973l5.154 3.99-5.154 4.655V52.87s4.323-3.491 7.648-10.308c0 0 .166-.333.499-1.164.332 1.829.166 5.653-1.995 10.308-1.663 3.658-4.489 6.983-8.313 8.978-6.484 3.491-11.472 3.824-16.626 2.826-6.152-1.164-11.804-4.489-15.462-10.308C1.164 49.046 0 44.391 0 39.237.166 29.095 7.98 20.45 16.958 17.124c1.164-.332 1.496-.665 2.993-.831-.665.499-1.496.998-2.494 1.663-2.826 1.829-5.32 5.487-6.484 8.313l17.291-7.482v23.442l-13.799 6.817c1.663 2.161 6.484 5.32 10.64 5.819 6.983.831 11.638-1.829 11.638-1.829V37.74l-5.154-4.489 5.154-3.99V18.288c-2.993-.333-7.149-1.663-9.144-2.161-3.159-.665-13.467-3.491-15.129-3.824-1.663-.166-3.658-.166-4.821.831s-1.995 2.993-1.496 4.655c.332.998.998 1.496 1.496 1.995 0 0-.665 0-1.663-.665-1.995-1.164-3.491-3.325-3.658-6.151A10.31 10.31 0 0 1 6.65 3.99c2.66-1.663 5.653-2.66 9.144-2.161 5.154.665 11.971 3.491 18.122 4.988 2.328.499 4.156.665 5.819-.166.831-.499 2.161-1.995.998-3.824C39.403.665 36.909.665 34.748.333 36.743 0 37.075 0 38.405 0" stroke="none" fill="#251802" fill-rule="nonzero"/></symbol></svg>